TITLE "mixed demo 2010"
PERFORMER "Melting Architecture (融解建築)"
REM DATE "2010"
REM DISCID 1C04E803
FILE "Melting Architecture (融解建築) - mixed demo 2010.flac" WAVE
  TRACK 01 AUDIO
    TITLE "Otolith"
    PERFORMER "Melting Architecture (融解建築)"
    INDEX 01 00:00:00
  TRACK 02 AUDIO
    TITLE "The Porcupine Dilemma"
    PERFORMER "Melting Architecture (融解建築)"
    INDEX 01 07:01:04
  TRACK 03 AUDIO
    TITLE "White in the Dark"
    PERFORMER "Melting Architecture (融解建築)"
    INDEX 01 13:36:07
